<?xml version="1.0" encoding="utf-8"?>
<svg width="24px" height="24px" viewBox="0 0 24 24" version="1.1" xmlns:xlink="http://www.w3.org/1999/xlink" xmlns="http://www.w3.org/2000/svg">
  <defs>
    <path d="M0 0L24 0L24 24L0 24L0 0Z" id="path_1" />
    <clipPath id="mask_1">
      <use xlink:href="#path_1" />
    </clipPath>
  </defs>
  <g id="Home-icon">
    <path d="M0 0L24 0L24 24L0 24L0 0Z" id="Background" fill="#FFFFFF" fill-opacity="0" fill-rule="evenodd" stroke="none" />
    <g clip-path="url(#mask_1)">
      <path d="M11.9756 2.00012C11.8157 2.00558 11.6617 2.06204 11.5361 2.16125L4.42969 7.75988C3.52774 8.4707 3 9.55687 3 10.7052L3 20.2501C3 20.9319 3.5682 21.5001 4.25 21.5001L9.25 21.5001C9.9318 21.5001 10.5 20.9319 10.5 20.2501L10.5 15.2501C10.5 15.1026 10.6025 15.0001 10.75 15.0001L13.25 15.0001C13.3975 15.0001 13.5 15.1026 13.5 15.2501L13.5 20.2501C13.5 20.9319 14.0682 21.5001 14.75 21.5001L19.75 21.5001C20.4318 21.5001 21 20.9319 21 20.2501L21 10.7052C21 9.55687 20.4723 8.4707 19.5703 7.75988L12.4639 2.16125C12.3252 2.05169 12.1522 1.99462 11.9756 2.00012L11.9756 2.00012ZM12 3.7052L18.6426 8.9386C19.1846 9.36578 19.5 10.0155 19.5 10.7052L19.5 20.0001L15 20.0001L15 15.2501C15 14.2926 14.2075 13.5001 13.25 13.5001L10.75 13.5001C9.79252 13.5001 9 14.2926 9 15.2501L9 20.0001L4.5 20.0001L4.5 10.7052C4.5 10.0155 4.81537 9.36578 5.35742 8.9386L12 3.7052L12 3.7052Z" id="Shape" fill="#FFFFFF" fill-rule="evenodd" stroke="none" />
    </g>
  </g>
</svg>