<?xml version="1.0" encoding="utf-8"?>
<svg width="24px" height="24px" viewBox="0 0 24 24" version="1.1" xmlns:xlink="http://www.w3.org/1999/xlink" xmlns="http://www.w3.org/2000/svg">
  <defs>
    <path d="M0 0L24 0L24 24L0 24L0 0Z" id="path_1" />
    <clipPath id="mask_1">
      <use xlink:href="#path_1" />
    </clipPath>
  </defs>
  <g id="Home-icon-2">
    <path d="M0 0L24 0L24 24L0 24L0 0Z" id="Background" fill="#FFFFFF" fill-opacity="0" fill-rule="evenodd" stroke="none" />
    <g clip-path="url(#mask_1)">
      <path d="M19.75 21.5L15.25 21.5C14.5595 21.5 14 20.9405 14 20.25L14 15.75C14 15.1975 13.5525 14.75 13 14.75L11 14.75C10.4475 14.75 10 15.1975 10 15.75L10 20.25C10 20.9405 9.4405 21.5 8.75 21.5L4.25 21.5C3.5595 21.5 3 20.9405 3 20.25L3 10.7065C3 9.557 3.527 8.471 4.4295 7.76L11.5355 2.1605C11.808 1.9465 12.192 1.9465 12.464 2.1605L19.571 7.76C20.4735 8.471 21 9.5565 21 10.7055L21 20.25C21 20.9405 20.4405 21.5 19.75 21.5L19.75 21.5Z" id="Shape" fill="#FFFFFF" stroke="none" />
    </g>
  </g>
</svg>