<?xml version="1.0" encoding="utf-8"?>
<svg width="24px" height="24px" viewBox="0 0 24 24" version="1.1" xmlns:xlink="http://www.w3.org/1999/xlink" xmlns="http://www.w3.org/2000/svg">
  <defs>
    <path d="M0 0L24 0L24 24L0 24L0 0Z" id="path_1" />
    <clipPath id="mask_1">
      <use xlink:href="#path_1" />
    </clipPath>
  </defs>
  <g id="Contacts-icon">
    <path d="M0 0L24 0L24 24L0 24L0 0Z" id="Background" fill="#FFFFFF" fill-opacity="0" fill-rule="evenodd" stroke="none" />
    <g clip-path="url(#mask_1)">
      <path d="M12 3C9.52148 3 7.5 5.02148 7.5 7.5C7.5 9.97852 9.52148 12 12 12C14.4785 12 16.5 9.97852 16.5 7.5C16.5 5.02148 14.4785 3 12 3L12 3ZM12 12C7.86914 12 4.5 15.3691 4.5 19.5L6 19.5C6 16.1777 8.67773 13.5 12 13.5C15.3223 13.5 18 16.1777 18 19.5L19.5 19.5C19.5 15.3691 16.1309 12 12 12L12 12ZM12 4.5C13.6641 4.5 15 5.83594 15 7.5C15 9.16406 13.6641 10.5 12 10.5C10.3359 10.5 9 9.16406 9 7.5C9 5.83594 10.3359 4.5 12 4.5L12 4.5Z" id="Shape" fill="#FFFFFF" fill-rule="evenodd" stroke="none" />
    </g>
  </g>
</svg>